<svg width="40" height="30" viewBox="0 0 40 30" fill="none" xmlns="http://www.w3.org/2000/svg">
<path d="M22.5305 0.0557795C22.3338 0.158324 22.0841 0.773592 21.9934 1.38202C21.8723 2.1682 22.0388 2.9407 22.4926 3.78157C22.9768 4.67713 23.4155 5.20352 24.9058 6.63915C26.2145 7.90387 26.5852 8.36873 26.5322 8.68321C26.5171 8.8131 26.4263 8.86095 26.0178 8.95666C25.2235 9.15491 24.3082 9.17542 22.8028 9.03869C21.2293 8.90197 19.7315 8.88146 19.1339 8.99768C18.9069 9.04553 18.2564 9.09338 17.6966 9.10706C16.1761 9.15491 14.8825 9.39418 13.536 9.8864C10.79 10.8777 10.3361 11.1511 8.08934 13.0721C7.48416 13.5917 6.81846 14.1181 6.60665 14.2411C6.1225 14.5214 5.77452 14.8906 5.1996 15.7246C4.94997 16.0869 4.65494 16.4834 4.54147 16.5997L4.33722 16.8184L3.2479 16.8389C2.4536 16.8526 2.03753 16.8868 1.74251 16.9757C1.27349 17.1055 0.864997 17.4337 0.781785 17.7276C0.524583 18.6506 2.50655 20.7014 3.64883 20.7014C3.90603 20.7014 3.93629 20.7151 3.85308 20.804C3.80012 20.8655 3.39919 21.0638 2.968 21.262C1.82572 21.7679 1.62904 22.0619 0.864997 24.4477C0.645619 25.1519 0.365723 25.9449 0.252252 26.2047C-0.103292 27.025 -0.0805977 28.529 0.305205 29.3152C0.653184 30.0193 1.1222 30.1834 1.71225 29.7937C2.33256 29.3767 2.62759 28.8845 3.26303 27.2028C3.78499 25.8082 4.04976 25.3228 4.58686 24.8032C5.37359 24.0307 6.16033 23.7915 8.08934 23.7163C9.29214 23.6752 9.451 23.6547 9.84436 23.4907C10.4495 23.2377 11.0169 22.8754 12.0987 22.0414C12.6131 21.638 13.1275 21.2962 13.2334 21.2689C13.536 21.2005 14.5572 20.7561 15.6163 20.2297C16.6224 19.7307 17.5226 19.4299 18.9448 19.1086C20.6922 18.7121 22.8709 18.3703 24.399 18.2472C25.1403 18.1857 25.3143 18.1925 25.8363 18.3156C26.1615 18.3839 27.2357 18.5412 28.2116 18.6506C30.4659 18.9172 31.2375 19.0881 32.4403 19.6008C33.923 20.2297 34.8988 20.428 35.4284 20.2161C35.6553 20.1204 35.852 19.7717 35.852 19.4572C35.852 19.1496 35.5116 18.6847 34.9821 18.2746C34.7551 18.0968 34.566 17.9259 34.566 17.8917C34.566 17.7482 35.3527 17.8849 37.017 18.3019C37.6222 18.4591 38.008 18.5138 38.4467 18.5138C39.1427 18.5138 39.4453 18.4113 39.7932 18.049C39.9899 17.8507 40.0202 17.7687 39.9899 17.5704C39.9597 17.4405 39.8916 17.2628 39.8235 17.1739C39.589 16.8526 39.3847 16.7911 38.4391 16.7569C37.5768 16.7227 37.5314 16.7159 36.5631 16.3535C36.0184 16.1553 35.2695 15.9229 34.8988 15.8408C34.0894 15.6631 33.8322 15.581 33.6885 15.458C33.5145 15.3008 33.5674 15.0478 33.8246 14.788C34.1651 14.4325 34.7173 14.2001 35.3981 14.1249C36.1697 14.0429 36.5631 13.8583 36.8127 13.4755C37.2288 12.8328 37.0775 11.5613 36.4799 10.6726C36.3286 10.4538 36.0941 10.0983 35.9503 9.87956C35.1863 8.72422 33.7793 7.80132 31.9108 7.24074L31.1845 7.02198L30.7458 6.15377C29.6035 3.88411 28.779 2.60572 28.1057 2.05198C27.6896 1.71017 26.8726 1.34101 26.1691 1.17693C25.5639 1.04021 24.9436 1.08123 24.641 1.28632C24.3763 1.45722 24.3914 1.4709 23.7862 0.787265C23.1583 0.0762884 22.8406 -0.108292 22.5305 0.0557795Z" fill="current"/>
</svg>
