<svg width="40" height="19" viewBox="0 0 40 19" fill="none" xmlns="http://www.w3.org/2000/svg">
<path d="M17.8492 0.0313923C14.3501 0.183193 11.775 0.714495 9.76799 1.7012C8.38956 2.37671 7.06415 3.38618 5.73874 4.79034C3.97405 6.64989 2.8607 8.79787 2.59562 10.8472L2.55018 11.2267L1.62618 11.2039C-0.146085 11.1584 -0.509626 11.5758 0.732473 12.2437C1.25506 12.517 1.98215 12.7219 3.23939 12.9344C4.42848 13.1394 5.12526 13.3367 5.68572 13.6403C6.02654 13.8149 6.11743 13.906 6.10228 14.0274C6.06441 14.2627 5.67815 14.4448 4.77687 14.6346C3.6711 14.8775 3.40602 14.9989 2.95916 15.4695C2.45172 16.0008 2.30024 16.4562 2.34569 17.2911C2.38356 18.0122 2.61077 18.5207 2.97431 18.6953C3.16366 18.7863 3.25454 18.7863 3.65595 18.6801C3.94375 18.6042 4.739 18.5283 5.81448 18.4752C8.59405 18.3385 8.66222 18.3158 9.41959 17.2987C9.63923 16.9875 9.90432 16.6839 9.9952 16.6232C10.1997 16.479 10.6465 16.4638 11.0555 16.5928C11.2979 16.6611 11.8811 16.6535 13.8805 16.5397C16.1451 16.4107 16.5011 16.4107 17.3721 16.5093C18.5763 16.6384 21.7497 16.646 22.8555 16.5093C24.6808 16.2968 26.4985 15.9325 28.0965 15.4695C29.1038 15.1735 29.066 15.1811 29.066 15.2949C29.066 15.4771 29.7022 16.8661 30.0127 17.3822C30.3914 17.9894 31.0124 18.6118 31.4744 18.8471C32.0576 19.1431 32.8604 18.9989 33.3224 18.5055C33.6708 18.126 33.8602 17.5947 33.898 16.8812C33.9435 15.8566 33.4057 13.443 32.6635 11.3633C32.5196 10.9534 32.3984 10.5739 32.3984 10.5284C32.3984 10.3842 33.2316 9.9895 33.792 9.86047C34.0647 9.79975 34.9887 9.69349 35.8597 9.63277C37.4804 9.51892 38.0636 9.41266 38.7225 9.10906C40.1464 8.45632 40.4115 7.12047 39.3587 5.92125C38.8967 5.39754 38.2302 5.09394 37.4198 5.05599C36.5186 5.01045 35.8294 5.13948 34.1404 5.68596C33.33 5.95161 32.3606 6.22485 31.997 6.29316L31.3305 6.4146L30.5201 5.67078C27.9753 3.31028 26.2182 2.01998 24.3324 1.12436C22.2874 0.152833 20.8106 -0.0976381 17.8492 0.0313923Z" />
</svg>
